<?xml version="1.0" standalone="no"?>
<!DOCTYPE svg PUBLIC "-//W3C//DTD SVG 20010904//EN"
 "http://www.w3.org/TR/2001/REC-SVG-20010904/DTD/svg10.dtd">
<svg version="1.0" xmlns="http://www.w3.org/2000/svg"
 width="457.000000pt" height="457.000000pt" viewBox="0 0 457.000000 457.000000"
 preserveAspectRatio="xMidYMid meet">
<metadata>
Created by potrace 1.14, written by Peter Selinger 2001-2017
</metadata>
<g transform="translate(0.000000,457.000000) scale(0.100000,-0.100000)"
fill="#000000" stroke="none">
<path d="M359 4543 c-8 -21 -38 -113 -39 -119 -1 -8 68 0 79 9 12 10 14 9 9
-4 -4 -10 0 -15 11 -15 44 0 71 -5 70 -11 -3 -20 2 -24 16 -13 12 10 24 8 62
-11 27 -12 57 -29 67 -38 16 -14 18 -14 14 -1 -2 8 -18 21 -34 29 -16 8 -31
18 -34 22 -3 4 -18 12 -33 18 -32 13 -33 21 -7 96 11 32 20 60 20 62 0 1 -43
3 -95 3 -95 0 -96 0 -106 -27z"/>
<path d="M580 4565 c0 -3 23 -50 50 -105 28 -55 50 -105 50 -111 0 -7 20 -55
44 -109 28 -59 44 -110 44 -131 -1 -19 4 -68 11 -110 27 -171 14 -617 -23
-820 -8 -46 -29 -176 -46 -289 -16 -113 -37 -248 -45 -300 -17 -111 -45 -377
-44 -417 2 -47 41 178 54 307 13 132 15 149 66 430 11 63 24 140 29 170 7 50
25 100 49 140 10 16 127 229 173 315 40 76 68 136 68 149 0 6 7 22 16 34 9 13
13 30 10 38 -3 8 -2 13 3 10 9 -6 31 45 31 73 0 14 -2 14 -10 1 -5 -8 -10 -10
-10 -5 0 6 7 21 16 33 15 21 15 25 0 41 -9 10 -13 21 -9 24 3 4 -1 7 -10 7
-18 0 -23 16 -7 22 5 2 -1 26 -15 53 -96 198 -135 284 -135 298 0 12 156 119
179 123 11 2 106 45 190 87 69 35 79 43 58 45 -15 2 -45 -8 -70 -22 -24 -14
-50 -26 -57 -26 -35 0 -222 -105 -276 -155 -35 -33 -47 -32 -65 8 -9 17 -35
69 -59 115 l-44 82 -52 0 -52 0 11 -30 c6 -16 15 -30 19 -30 4 0 8 -4 8 -10 0
-25 -23 -6 -37 30 -16 39 -17 40 -65 40 -26 0 -48 -2 -48 -5z m162 -94 c8 11
9 11 6 1 -4 -16 -22 -18 -24 -2 -2 7 -1 6 3 -1 4 -8 8 -7 15 2z m33 -69 c-6
-6 -35 18 -35 29 0 5 9 1 20 -8 11 -9 17 -19 15 -21z m10 -32 c3 -5 1 -10 -4
-10 -6 0 -11 5 -11 10 0 6 2 10 4 10 3 0 8 -4 11 -10z m70 -143 c8 -16 13 -32
10 -35 -2 -2 -10 8 -17 24 -7 16 -18 35 -25 42 -18 18 -16 27 2 12 8 -7 21
-26 30 -43z m-30 -202 c81 -175 85 -188 67 -199 -4 -3 -21 -44 -38 -93 l-29
-88 -7 160 c-3 88 -13 192 -22 230 -15 69 -20 104 -9 75 3 -8 20 -46 38 -85z
m91 77 c0 -10 -5 -19 -12 -19 -6 0 -9 9 -6 19 2 10 7 18 11 18 4 0 7 -8 7 -18z
m34 -72 c0 -10 5 -20 12 -22 6 -2 9 -11 6 -18 -3 -10 -10 -5 -21 17 -19 36
-22 57 -7 48 6 -3 10 -15 10 -25z m40 -80 c0 -5 0 -13 -1 -16 0 -3 8 -12 18
-20 10 -7 13 -14 7 -14 -6 0 -16 6 -21 13 -16 20 -23 47 -13 47 6 0 10 -4 10
-10z m11 -127 c-12 -20 -14 -14 -5 12 4 9 9 14 11 11 3 -2 0 -13 -6 -23z m-31
-77 c0 -3 -4 -8 -10 -11 -5 -3 -10 -1 -10 4 0 6 5 11 10 11 6 0 10 -2 10 -4z
m-23 -58 c-3 -8 -6 -5 -6 6 -1 11 2 17 5 13 3 -3 4 -12 1 -19z m-40 -90 c-3
-8 -6 -5 -6 6 -1 11 2 17 5 13 3 -3 4 -12 1 -19z m-110 -225 c-2 -16 -4 -3 -4
27 0 30 2 43 4 28 2 -16 2 -40 0 -55z"/>
<path d="M2467 4550 c-5 -20 -3 -21 51 -14 67 8 103 23 57 24 -16 0 -46 3 -66
6 -31 5 -37 3 -42 -16z"/>
<path d="M2905 4556 c96 -46 186 -86 195 -86 5 0 10 -4 10 -10 0 -5 7 -10 15
-10 18 0 95 -49 95 -60 0 -4 8 -10 18 -14 17 -5 52 -26 62 -36 3 -3 26 -22 52
-43 26 -21 53 -44 60 -51 189 -195 214 -225 287 -344 35 -56 71 -108 80 -115
10 -6 30 -34 45 -62 16 -27 37 -61 47 -75 11 -14 42 -59 69 -100 27 -41 53
-79 57 -85 5 -5 14 -21 21 -35 6 -14 29 -52 50 -85 99 -155 191 -351 212 -450
15 -73 16 -163 1 -178 -8 -8 -11 -5 -11 12 0 54 -185 393 -256 470 -32 34
-103 184 -110 232 -7 43 -60 129 -84 137 -11 4 -10 1 2 -11 9 -9 22 -34 28
-54 7 -21 19 -49 27 -61 8 -13 21 -45 28 -70 8 -26 32 -110 55 -187 79 -270
112 -492 93 -628 -12 -84 -8 -185 11 -289 18 -96 53 -212 76 -251 10 -18 21
-43 25 -57 l7 -25 -26 25 c-15 13 -46 49 -69 80 -23 30 -44 57 -47 60 -3 3
-19 26 -37 52 l-31 46 0 139 c1 209 -16 247 -23 53 -5 -142 -21 -290 -50 -460
-13 -75 -47 -201 -58 -213 -8 -9 -24 119 -24 190 0 24 6 50 13 58 7 9 10 18 7
22 -7 6 -37 -58 -37 -78 0 -18 -68 -157 -106 -217 -19 -29 -34 -58 -33 -65 0
-6 4 -2 9 10 24 58 30 17 30 -191 0 -118 5 -260 10 -317 16 -160 60 -462 69
-474 12 -14 24 -81 26 -138 2 -61 74 -206 149 -299 30 -37 60 -84 67 -105 7
-21 21 -56 31 -78 l19 -40 -6 50 c-9 67 -48 147 -97 198 -22 23 -47 58 -55 77
-8 19 -23 46 -33 60 -10 14 -24 48 -32 75 -8 28 -19 49 -25 48 -6 -1 -9 6 -6
17 3 11 -2 50 -11 87 -43 184 -84 612 -88 918 l-1 150 36 78 c20 42 37 84 37
92 0 8 3 15 8 15 18 0 -4 -274 -24 -291 -16 -13 -19 -39 -5 -39 5 0 16 7 25
15 15 15 33 4 22 -14 -4 -5 0 -11 6 -14 10 -3 10 -7 -1 -20 -7 -10 -9 -17 -3
-17 6 0 13 -19 17 -43 11 -69 39 -175 55 -212 5 -11 18 -54 28 -95 11 -41 24
-88 30 -105 6 -16 22 -68 37 -115 50 -168 68 -220 76 -220 9 0 -6 57 -20 74
-6 7 -13 30 -17 51 -3 22 -14 62 -24 90 -16 44 -33 107 -70 270 -10 46 -20
113 -25 184 -5 64 -35 194 -48 202 -6 4 -5 9 1 13 9 6 0 81 -11 93 -3 3 5 28
19 55 23 46 71 247 89 373 4 28 9 54 12 58 3 5 20 -16 39 -45 68 -108 221
-268 255 -268 15 0 19 -7 18 -27 -1 -16 6 -71 15 -123 17 -107 40 -303 55
-490 6 -69 13 -152 16 -185 3 -33 8 -109 11 -170 3 -60 8 -112 11 -115 8 -7
-7 442 -16 515 -5 33 -16 125 -25 205 -9 80 -26 193 -37 251 -11 58 -17 113
-14 121 4 10 -11 31 -39 58 -43 41 -77 96 -80 130 -1 8 -10 33 -20 55 -9 22
-24 67 -32 100 -8 33 -22 85 -32 115 -14 46 -17 86 -14 245 4 227 -10 419 -36
500 -22 68 -39 187 -22 145 6 -13 18 -32 27 -42 9 -10 25 -35 37 -57 88 -165
106 -204 111 -253 3 -29 8 -64 10 -78 3 -14 11 -115 20 -225 26 -352 28 -376
37 -381 11 -7 10 47 -2 176 -16 166 -40 473 -39 495 1 29 49 -114 49 -146 0
-15 5 -31 10 -34 6 -4 10 7 10 27 0 18 8 47 17 63 25 46 21 144 -11 244 -24
75 -38 108 -79 186 -6 11 -26 49 -44 85 -34 68 -45 86 -79 135 -11 17 -30 48
-43 70 -21 36 -22 40 -6 52 10 6 15 19 12 27 -3 8 1 20 8 26 10 8 15 41 17
108 l3 97 13 -55 c7 -30 20 -111 28 -180 15 -138 22 -175 30 -167 10 9 -36
359 -56 434 -14 52 -22 131 -30 290 -9 194 -19 276 -45 376 -6 24 -4 27 16 27
21 0 20 2 -11 25 -19 14 -64 34 -100 45 l-65 20 -70 -68 c-38 -38 -109 -103
-157 -146 -48 -43 -85 -83 -81 -89 3 -5 1 -7 -4 -4 -6 4 -13 0 -17 -8 -10 -26
-37 -16 -81 28 -86 86 -141 134 -172 150 -40 21 -49 21 -33 2 7 -8 18 -15 24
-15 6 0 29 -16 51 -35 22 -19 42 -35 45 -35 3 0 11 -9 18 -21 8 -12 -21 3 -75
39 -48 33 -99 65 -113 72 -14 7 -27 16 -30 19 -5 6 -39 25 -145 80 -27 14 -52
28 -55 31 -3 3 -23 7 -45 8 l-40 3 30 -15z m1060 -96 c3 -5 1 -10 -4 -10 -6 0
-11 5 -11 10 0 6 2 10 4 10 3 0 8 -4 11 -10z m2 -187 c-2 -27 -3 -5 -3 47 0
52 1 74 3 48 2 -27 2 -69 0 -95z m-96 75 c0 -7 2 -41 6 -75 6 -69 -2 -77 -45
-47 -12 8 -26 13 -32 9 -5 -3 -19 -3 -32 0 -22 6 -20 9 31 65 55 60 71 71 72
48z m-31 -148 c24 -18 25 -24 31 -172 6 -153 2 -208 -12 -158 l-7 25 -1 -27
c-1 -16 -5 -28 -10 -28 -4 0 -7 15 -4 34 2 19 -1 37 -7 41 -6 4 -8 11 -5 16 4
5 1 9 -4 9 -6 0 -11 6 -11 13 0 7 -9 19 -20 27 -11 8 -20 19 -20 26 0 6 -13
24 -30 40 -16 16 -30 35 -30 42 0 9 -8 11 -22 8 -13 -3 -17 -3 -11 0 10 4 10
11 2 27 -11 19 -13 19 -24 3 -11 -15 -12 -13 -10 14 3 38 9 45 60 63 57 21
106 20 135 -3z m127 -27 c-3 -10 -5 -4 -5 12 0 17 2 24 5 18 2 -7 2 -21 0 -30z
m-322 -82 c3 -5 1 -12 -4 -15 -5 -3 -11 1 -15 9 -6 16 9 21 19 6z m105 -156
c-7 -9 -15 -13 -18 -10 -3 2 1 11 8 20 7 9 15 13 18 10 3 -2 -1 -11 -8 -20z
m221 -52 c2 -23 0 -45 -4 -49 -4 -4 -7 17 -7 46 0 62 7 64 11 3z m-204 5 c-3
-8 -6 -5 -6 6 -1 11 2 17 5 13 3 -3 4 -12 1 -19z m46 -49 c-6 -6 -9 -19 -6
-28 3 -11 1 -11 -7 3 -10 15 -9 20 1 27 19 12 25 11 12 -2z m31 -25 c3 -8 2
-12 -4 -9 -6 3 -10 10 -10 16 0 14 7 11 14 -7z m49 -128 c-3 -15 -10 -23 -18
-20 -17 7 -26 57 -12 66 17 11 35 -18 30 -46z m87 14 c0 -5 -5 -10 -11 -10 -5
0 -7 5 -4 10 3 6 8 10 11 10 2 0 4 -4 4 -10z m-3 -42 c-3 -8 -6 -5 -6 6 -1 11
2 17 5 13 3 -3 4 -12 1 -19z m3 -38 c0 -5 -5 -10 -11 -10 -5 0 -7 5 -4 10 3 6
8 10 11 10 2 0 4 -4 4 -10z m-1 -62 c1 -5 -3 -8 -9 -8 -5 0 -10 12 -9 28 0 24
1 25 9 7 5 -11 9 -23 9 -27z"/>
<path d="M2240 4498 c-19 -12 -42 -30 -51 -40 -9 -10 -19 -15 -23 -11 -3 3 -6
-1 -6 -10 0 -9 -4 -17 -10 -17 -5 0 -10 -6 -10 -12 0 -7 -18 -40 -40 -73 -57
-84 -50 -98 12 -23 29 35 58 67 66 72 8 4 22 16 32 26 10 10 20 16 23 14 2 -3
12 7 21 21 9 14 22 25 29 24 27 -3 34 2 33 24 -1 30 -33 32 -76 5z"/>
<path d="M2649 4385 c29 -19 58 -35 64 -35 5 0 8 -3 5 -6 -3 -3 12 -23 33 -45
21 -22 46 -54 55 -72 9 -18 20 -34 25 -37 4 -3 15 -21 23 -40 21 -48 20 -20
-1 32 -20 49 -21 51 -87 124 -52 57 -129 114 -155 114 -9 0 8 -16 38 -35z"/>
<path d="M307 4388 c-8 -13 -27 -36 -41 -53 -36 -40 -92 -154 -117 -240 -19
-64 -78 -369 -78 -405 0 -36 17 18 29 90 17 104 65 301 91 369 36 98 71 157
137 229 26 29 27 32 8 32 -7 0 -20 -10 -29 -22z"/>
<path d="M1525 4221 c-3 -6 -10 -9 -14 -7 -11 7 -26 -5 -61 -48 -17 -22 -28
-46 -25 -53 2 -8 0 -11 -5 -8 -6 3 -10 1 -10 -5 0 -6 -7 -27 -16 -48 -10 -20
-18 -43 -20 -49 -1 -7 -15 -41 -32 -75 -16 -35 -44 -99 -62 -143 -18 -44 -39
-94 -46 -112 -8 -17 -14 -36 -14 -42 0 -6 -9 -37 -20 -69 -27 -76 -87 -324
-94 -387 -5 -42 -3 -38 13 25 10 41 28 109 40 150 11 41 30 109 41 150 11 41
24 84 30 95 5 11 18 47 29 80 42 126 107 260 191 395 33 52 59 101 60 108 0 6
4 12 9 12 10 0 24 30 17 37 -2 2 -7 -1 -11 -6z"/>
<path d="M2881 4115 c0 -5 17 -59 39 -120 53 -145 92 -309 121 -514 15 -105 6
-407 -15 -551 -16 -105 -41 -209 -77 -329 -20 -68 -20 -94 0 -39 7 18 19 47
26 64 7 17 27 91 44 165 26 117 44 281 52 484 1 38 39 -65 68 -188 38 -163 72
-338 66 -348 -5 -8 -82 -26 -144 -34 -44 -5 -50 -12 -16 -21 23 -6 114 -1 156
8 9 2 16 -23 24 -79 16 -118 28 -116 20 4 l-7 101 38 11 c60 17 66 15 60 -16
-2 -16 -7 -50 -11 -78 -6 -55 -23 -142 -32 -165 -6 -15 -9 -25 -11 -46 -1 -6
-17 -11 -35 -12 -18 -1 -46 -8 -63 -17 -16 -8 -45 -17 -64 -20 -69 -11 -153
-37 -184 -57 l-31 -20 45 6 c32 4 41 3 30 -4 -13 -9 -13 -10 0 -10 8 0 42 7
75 15 80 19 91 19 75 0 -10 -12 -9 -15 7 -15 10 0 26 9 36 20 18 21 37 26 37
10 0 -5 -7 -10 -16 -10 -23 0 -13 -33 16 -47 13 -6 29 -8 35 -4 16 13 49 -4
64 -33 10 -18 20 -24 32 -21 13 4 19 0 21 -17 3 -19 6 -16 16 17 6 22 12 55
14 73 2 34 15 40 51 20 51 -27 51 -28 38 -191 -6 -84 -12 -160 -12 -169 0 -10
-6 -15 -13 -12 -20 8 -63 -75 -161 -311 -7 -16 -16 -41 -20 -55 -20 -66 -92
-189 -149 -254 -28 -32 -36 -62 -12 -49 24 13 91 104 124 168 33 62 132 280
132 290 0 3 13 24 30 47 17 22 30 47 30 55 0 7 5 13 11 13 7 0 9 -12 6 -32 -3
-18 -9 -55 -12 -83 l-5 -50 19 57 c21 60 56 325 65 491 6 101 11 121 27 112 5
-4 15 -3 21 1 9 6 5 10 -12 14 l-25 6 0 234 c0 220 -6 290 -25 290 -4 0 -7
-10 -6 -22 1 -13 -2 -24 -6 -25 -5 -2 -17 -12 -28 -23 -26 -26 -36 -20 -44 25
-4 20 -11 33 -16 30 -5 -3 -5 -18 0 -34 8 -28 -2 -51 -22 -51 -4 0 -8 37 -7
83 1 60 3 75 10 57 6 -18 7 -13 3 20 -3 25 -9 70 -13 100 -6 45 -8 29 -13 -90
-4 -80 -10 -153 -13 -162 -6 -16 -91 -42 -106 -32 -4 2 -13 37 -19 77 -7 39
-18 97 -26 127 -7 30 -24 111 -38 180 -14 69 -37 154 -52 190 -16 39 -36 122
-50 210 -26 166 -55 294 -89 395 -26 76 -83 206 -84 190z m619 -1510 c0 -96
-4 -175 -8 -175 -4 0 -13 51 -20 113 -7 61 -19 134 -27 162 -19 61 -14 75 25
75 l30 0 0 -175z m-68 40 c32 -208 39 -267 35 -271 -2 -2 -15 5 -30 16 -18 15
-40 20 -81 20 -31 0 -56 2 -56 4 0 1 11 48 25 103 13 55 27 127 31 159 7 65
19 86 43 82 12 -3 20 -29 33 -113z m-54 -282 c-10 -2 -26 -2 -35 0 -10 3 -2 5
17 5 19 0 27 -2 18 -5z m2 -70 c0 -10 -4 -14 -8 -8 -4 6 -11 13 -16 18 -5 4
-2 7 7 7 10 0 17 -8 17 -17z m-123 1 c-3 -3 -12 -4 -19 -1 -8 3 -5 6 6 6 11 1
17 -2 13 -5z m83 -64 c0 -5 -4 -10 -10 -10 -5 0 -10 5 -10 10 0 6 5 10 10 10
6 0 10 -4 10 -10z"/>
<path d="M2377 3878 c-5 -114 -6 -236 -2 -271 15 -140 -23 -340 -99 -523 -40
-96 -115 -237 -140 -262 -21 -22 -26 -22 -72 -12 -27 7 -54 13 -61 15 -11 4 2
76 41 220 9 32 15 73 15 90 -2 26 -2 27 -6 5 -2 -14 -10 -43 -18 -65 -8 -22
-24 -78 -35 -125 -33 -129 -34 -130 -117 -99 l-23 8 32 53 c67 112 168 310
168 329 0 5 4 8 9 5 12 -8 21 66 10 78 -6 6 -9 4 -9 -6 0 -8 -13 -42 -30 -74
-16 -32 -30 -64 -30 -70 0 -5 -13 -31 -30 -57 -16 -26 -30 -54 -30 -61 0 -7
-9 -21 -20 -31 -11 -10 -22 -27 -26 -39 -3 -11 -22 -45 -41 -74 -26 -40 -39
-51 -53 -47 -10 3 -29 8 -42 10 -89 17 -135 30 -144 39 -11 10 -8 54 11 146 2
14 7 45 9 70 3 25 23 115 45 200 22 85 43 166 47 180 3 14 19 68 34 120 32
106 42 150 36 150 -2 0 -20 -53 -41 -117 -20 -65 -41 -129 -47 -142 -18 -46
-76 -285 -103 -426 -15 -77 -33 -149 -40 -161 -8 -12 -10 -26 -5 -34 4 -7 4
-27 -1 -44 -9 -28 -42 -212 -55 -296 -8 -58 -24 -89 -42 -83 -10 4 -13 2 -8
-5 5 -8 -2 -12 -21 -12 -39 0 -73 -10 -73 -22 0 -5 15 -9 33 -8 49 3 54 0 27
-15 -24 -13 -23 -13 16 -8 l42 5 -2 -168 c-1 -142 3 -189 23 -294 14 -69 29
-129 34 -135 6 -6 7 -3 4 10 -18 60 -39 287 -38 400 1 149 8 188 37 190 10 2
58 6 106 10 85 8 87 7 81 -14 -7 -26 8 -27 32 -1 13 14 22 17 31 10 8 -8 13
-7 16 2 4 10 8 9 21 -3 15 -15 14 -16 -9 -16 -35 -1 -39 -8 -16 -33 l20 -22 7
21 c6 21 25 29 25 11 0 -5 6 -7 13 -4 8 3 20 -2 27 -11 7 -8 21 -15 30 -15 10
0 27 -10 37 -23 19 -24 73 -45 73 -28 0 5 -6 12 -12 15 -7 3 -2 3 12 -1 14 -3
30 -13 37 -22 16 -23 25 -9 31 49 3 35 9 50 19 50 10 0 13 6 9 16 -4 10 -2 14
6 11 7 -2 12 -10 10 -16 -1 -6 5 -11 14 -11 9 0 12 5 8 11 -5 9 1 10 20 5 51
-13 22 28 -48 67 -37 21 -52 24 -62 16 -8 -6 -22 -8 -31 -5 -15 6 -15 8 -3 16
8 6 11 10 5 10 -51 2 -121 15 -126 22 -4 6 -9 6 -13 -1 -7 -11 -46 -16 -46 -5
0 3 5 14 11 26 9 17 17 19 53 14 41 -6 43 -5 82 41 50 59 104 138 104 151 0
18 24 19 109 5 60 -11 86 -12 94 -4 8 8 0 11 -27 11 -45 0 -124 19 -132 32 -3
5 5 26 18 46 40 61 121 238 137 300 6 22 22 64 36 93 l24 54 0 -41 c1 -39 12
-102 33 -189 5 -22 13 -58 17 -80 14 -67 12 -26 -10 207 -14 144 -24 341 -28
558 l-6 335 -8 -207z m-654 -1005 c15 -2 43 -10 63 -16 l35 -12 -43 -62 c-24
-34 -63 -89 -88 -123 -25 -35 -49 -69 -55 -77 -24 -36 -64 -73 -79 -73 -13 0
-15 9 -10 48 3 26 9 63 14 82 5 19 14 67 20 105 6 39 16 87 21 109 l10 38 42
-7 c23 -4 55 -9 70 -12z m198 -49 c37 -6 37 -6 27 -43 -5 -20 -13 -45 -18 -56
-6 -11 -17 -40 -25 -65 -21 -60 -40 -79 -76 -75 -16 2 -29 0 -29 -5 0 -6 14
-10 30 -10 33 0 37 -7 16 -35 -12 -17 -30 -20 -131 -24 -113 -3 -116 -3 -102
15 86 106 122 150 127 154 3 3 27 38 53 78 50 76 54 78 128 66z m186 -37 c3
-4 -3 -18 -13 -33 -11 -15 -24 -36 -31 -48 -20 -35 -46 -69 -78 -102 -24 -25
-37 -31 -58 -27 -32 6 -33 12 -8 61 10 20 26 62 36 92 30 93 27 90 90 75 31
-7 59 -15 62 -18z m-297 -311 c0 -8 -60 -12 -72 -4 -8 4 4 8 30 8 23 0 42 -2
42 -4z m125 -5 c36 -8 33 -9 -33 -10 -47 -1 -71 3 -67 9 7 12 45 12 100 1z
m-238 -17 c-3 -3 -12 -4 -19 -1 -8 3 -5 6 6 6 11 1 17 -2 13 -5z m274 -50 c16
-8 29 -19 29 -25 0 -6 5 -7 11 -3 6 3 14 3 18 -2 3 -5 15 -14 26 -20 22 -12
24 -26 4 -33 -7 -2 -9 1 -5 8 7 10 -8 15 -41 14 -7 -1 -13 6 -13 13 0 8 -11
20 -25 26 -14 6 -25 15 -25 19 0 4 -8 5 -19 2 -10 -3 -21 -1 -24 4 -9 15 34
13 64 -3z"/>
<path d="M1893 4005 c-3 -9 -3 -18 -1 -21 3 -3 8 4 11 16 6 23 -1 27 -10 5z"/>
<path d="M190 3692 c0 -10 -5 -23 -11 -29 -8 -8 -13 -83 -16 -215 -2 -112 -9
-232 -14 -268 -5 -36 -18 -130 -29 -210 -11 -80 -29 -199 -39 -265 -11 -66
-27 -166 -36 -223 -9 -57 -23 -128 -31 -158 -8 -30 -13 -81 -12 -112 1 -36 3
-44 5 -22 2 19 8 55 14 80 6 25 13 54 15 65 3 11 12 63 20 115 8 52 21 129 29
170 8 41 21 127 30 190 8 63 20 138 25 165 6 28 14 91 20 140 5 50 17 144 26
210 10 66 17 146 17 178 0 31 4 57 9 57 6 0 7 19 2 53 -4 28 -7 62 -7 75 1 12
-3 22 -8 22 -5 0 -9 -8 -9 -18z"/>
<path d="M62 3650 c0 -14 2 -19 5 -12 2 6 2 18 0 25 -3 6 -5 1 -5 -13z"/>
<path d="M56 3594 c-4 -9 -4 -19 -1 -22 2 -3 7 3 11 12 4 9 4 19 1 22 -2 3 -7
-3 -11 -12z"/>
<path d="M51 3514 c0 -11 3 -14 6 -6 3 7 2 16 -1 19 -3 4 -6 -2 -5 -13z"/>
<path d="M6 3338 c-6 -58 -8 -194 -2 -187 5 5 18 239 13 239 -2 0 -7 -24 -11
-52z"/>
<path d="M41 3374 c0 -11 3 -14 6 -6 3 7 2 16 -1 19 -3 4 -6 -2 -5 -13z"/>
<path d="M1091 3094 c0 -11 3 -14 6 -6 3 7 2 16 -1 19 -3 4 -6 -2 -5 -13z"/>
<path d="M2482 2941 c-7 -74 -16 -139 -20 -145 -4 -6 -7 -22 -8 -36 -6 -81
-38 -279 -60 -363 -14 -55 -23 -101 -20 -104 3 -3 8 8 11 23 3 16 10 36 14 44
32 60 107 569 99 673 -2 24 -8 -15 -16 -92z"/>
<path d="M890 3038 c0 -17 40 -72 47 -65 2 3 -7 22 -22 42 -14 21 -25 31 -25
23z"/>
<path d="M781 3025 c-1 -25 22 -114 37 -140 5 -11 23 -46 38 -77 15 -32 31
-58 36 -58 5 0 2 12 -6 28 -8 15 -24 50 -36 77 -12 28 -26 59 -31 70 -4 11
-15 43 -23 70 -8 28 -15 41 -15 30z"/>
<path d="M1081 3024 c0 -11 3 -14 6 -6 3 7 2 16 -1 19 -3 4 -6 -2 -5 -13z"/>
<path d="M40 2939 c0 -49 -3 -69 -10 -59 -5 8 -12 11 -16 8 -10 -11 -18 -182
-8 -175 5 3 8 -61 7 -151 -1 -110 1 -145 7 -116 11 51 34 553 26 561 -3 4 -6
-27 -6 -68z"/>
<path d="M1066 2989 c-3 -8 -10 -50 -16 -94 -6 -44 -17 -125 -25 -180 -8 -55
-15 -118 -15 -140 -1 -22 -5 -48 -8 -58 -7 -15 -11 -14 -42 13 -91 78 -100 83
-100 55 0 -8 6 -15 14 -15 8 0 40 -32 71 -72 54 -68 56 -73 54 -126 l-3 -55
-25 30 c-110 127 -133 153 -142 153 -18 0 -8 -17 42 -69 39 -41 48 -55 38 -62
-11 -7 -9 -9 7 -9 24 0 48 -43 39 -71 -5 -15 -1 -19 19 -19 26 0 26 -1 28 -77
0 -43 5 11 9 119 7 184 34 453 61 611 6 37 8 70 5 73 -4 4 -9 1 -11 -7z"/>
<path d="M3490 2895 c0 -8 4 -15 10 -15 5 0 7 7 4 15 -4 8 -8 15 -10 15 -2 0
-4 -7 -4 -15z"/>
<path d="M2885 2734 c-16 -47 -52 -132 -80 -189 -28 -57 -44 -99 -37 -92 13
10 65 113 115 227 19 43 41 129 35 136 -3 2 -18 -34 -33 -82z"/>
<path d="M787 2681 c16 -27 30 -48 32 -45 6 5 -43 94 -51 94 -5 0 4 -22 19
-49z"/>
<path d="M800 2599 c-75 -15 -95 -53 -115 -216 -20 -156 -20 -221 -1 -265 26
-61 136 -217 136 -194 0 3 -27 47 -60 98 -80 123 -84 140 -66 285 27 212 61
284 130 271 20 -4 26 -1 26 13 0 11 -1 19 -2 18 -2 -1 -23 -5 -48 -10z"/>
<path d="M2601 2445 c-24 -25 -38 -45 -33 -45 5 0 20 13 33 30 13 16 30 30 37
30 6 0 12 7 12 15 0 21 -1 20 -49 -30z"/>
<path d="M792 2458 c-7 -7 -12 -19 -12 -27 0 -11 5 -8 16 7 18 25 15 39 -4 20z"/>
<path d="M2836 2444 c-4 -14 -5 -28 -3 -31 3 -2 8 8 11 23 4 14 5 28 3 31 -3
2 -8 -8 -11 -23z"/>
<path d="M3205 2460 l-40 -7 43 -2 c23 0 44 -1 47 -1 9 0 7 14 -2 16 -4 0 -26
-2 -48 -6z"/>
<path d="M2737 2423 c-4 -3 -7 -11 -7 -17 0 -6 5 -5 12 2 6 6 9 14 7 17 -3 3
-9 2 -12 -2z"/>
<path d="M2626 2374 c-4 -14 -5 -28 -3 -31 3 -2 8 8 11 23 4 14 5 28 3 31 -3
2 -8 -8 -11 -23z"/>
<path d="M813 2383 c-7 -2 -13 -14 -13 -25 0 -19 1 -19 19 3 16 21 22 22 45
11 22 -10 26 -9 26 3 0 15 -49 20 -77 8z"/>
<path d="M1202 2355 c0 -16 2 -22 5 -12 2 9 2 23 0 30 -3 6 -5 -1 -5 -18z"/>
<path d="M2789 2343 c-13 -16 -12 -17 4 -4 9 7 17 15 17 17 0 8 -8 3 -21 -13z"/>
<path d="M1880 2319 c-13 -8 -13 -10 0 -19 27 -18 39 -9 22 17 -5 8 -12 9 -22
2z"/>
<path d="M1690 2299 c0 -18 2 -19 15 -9 15 12 12 30 -6 30 -5 0 -9 -10 -9 -21z"/>
<path d="M1212 2285 c0 -16 5 -48 13 -70 17 -53 17 -35 1 40 -9 38 -14 49 -14
30z"/>
<path d="M830 2279 c0 -17 46 -32 65 -22 14 8 10 12 -24 20 -24 7 -41 7 -41 2z"/>
<path d="M2356 2265 c-9 -26 -7 -32 5 -12 6 10 9 21 6 23 -2 3 -7 -2 -11 -11z"/>
<path d="M1685 2213 c8 -41 52 -140 67 -149 20 -13 18 6 -5 53 -13 26 -30 65
-36 85 -17 52 -34 60 -26 11z"/>
<path d="M2061 2204 c0 -11 3 -14 6 -6 3 7 2 16 -1 19 -3 4 -6 -2 -5 -13z"/>
<path d="M3062 2195 c-7 -14 -12 -62 -12 -107 0 -72 3 -85 26 -115 21 -27 31
-33 62 -32 l37 1 -34 12 c-19 7 -37 19 -39 27 -3 8 -8 16 -11 19 -13 11 -31
62 -31 91 0 16 9 48 20 70 19 37 20 59 1 59 -4 0 -13 -11 -19 -25z"/>
<path d="M930 2182 c0 -12 34 -42 48 -42 22 0 12 19 -18 35 -16 9 -30 12 -30
7z"/>
<path d="M1251 2124 c0 -11 3 -14 6 -6 3 7 2 16 -1 19 -3 4 -6 -2 -5 -13z"/>
<path d="M1995 2104 c-11 -17 -13 -25 -4 -22 16 5 44 48 31 48 -5 0 -17 -12
-27 -26z"/>
<path d="M3322 2106 c-7 -16 -8 -26 -1 -26 12 0 22 25 17 41 -2 6 -9 0 -16
-15z"/>
<path d="M4247 2104 c-3 -3 -3 -12 -1 -19 3 -7 9 -35 14 -61 l8 -49 1 68 c1
61 -5 78 -22 61z"/>
<path d="M1012 2060 c0 -19 2 -27 5 -17 2 9 2 25 0 35 -3 9 -5 1 -5 -18z"/>
<path d="M1261 2074 c0 -11 3 -14 6 -6 3 7 2 16 -1 19 -3 4 -6 -2 -5 -13z"/>
<path d="M1843 2028 c18 -6 36 -6 55 0 24 9 20 10 -28 10 -48 0 -52 -1 -27
-10z"/>
<path d="M630 2025 c0 -29 108 -173 195 -260 79 -79 230 -205 246 -205 5 0 9
-6 9 -12 0 -9 -19 -14 -58 -15 -31 0 -73 -8 -92 -17 -30 -13 -31 -14 -7 -9 23
4 26 3 20 -13 -5 -13 -3 -16 10 -11 31 12 117 20 117 11 -1 -5 -15 -18 -33
-29 -50 -32 -103 -155 -66 -155 4 0 29 20 54 44 25 25 55 48 65 51 11 4 20 13
20 21 0 13 -2 13 -16 0 -8 -9 -22 -16 -29 -16 -8 0 -28 -14 -46 -31 -17 -17
-32 -29 -34 -27 -2 2 3 19 11 38 13 31 36 53 94 92 11 7 12 11 2 15 -6 2 -10
9 -6 14 10 16 24 10 24 -12 0 -11 5 -17 10 -14 6 4 9 9 6 13 -2 4 -7 30 -10
57 -14 99 -23 141 -26 115 -3 -29 -6 -52 -9 -63 -2 -11 -61 21 -61 33 0 6 -6
10 -12 10 -7 0 -31 15 -53 33 -54 44 -225 213 -225 224 0 4 -14 24 -30 43 -17
19 -39 46 -50 58 -11 13 -20 21 -20 17z m388 -512 c-10 -2 -26 -2 -35 0 -10 3
-2 5 17 5 19 0 27 -2 18 -5z"/>
<path d="M3241 1999 c-13 -18 -17 -28 -10 -24 24 14 49 38 49 47 0 17 -17 7
-39 -23z"/>
<path d="M360 1926 c-6 -46 -10 -92 -8 -103 2 -10 10 26 17 80 7 54 11 101 8
103 -3 3 -10 -33 -17 -80z"/>
<path d="M8 1973 c7 -3 16 -2 19 1 4 3 -2 6 -13 5 -11 0 -14 -3 -6 -6z"/>
<path d="M4266 1955 c-3 -8 -2 -25 3 -37 7 -19 9 -17 8 15 -1 41 -2 44 -11 22z"/>
<path d="M995 1917 c28 -19 55 -28 55 -17 0 11 -8 16 -45 24 -28 7 -29 6 -10
-7z"/>
<path d="M840 1901 c14 -27 110 -125 144 -146 33 -22 109 -30 103 -11 -2 6
-12 11 -23 12 -53 3 -101 30 -166 95 -37 38 -64 60 -58 50z"/>
<path d="M4111 1805 c-1 -154 55 -533 95 -652 9 -25 13 -56 10 -68 -3 -13 -2
-25 2 -27 4 -2 36 -88 70 -191 34 -104 77 -221 96 -260 18 -40 50 -117 70
-172 21 -55 48 -122 61 -150 12 -27 29 -68 36 -90 11 -32 14 -36 17 -18 3 20
-23 95 -64 188 -7 16 -30 73 -49 125 -20 52 -40 104 -45 115 -25 52 -73 175
-86 220 -32 106 -35 125 -22 148 20 34 8 333 -18 455 -10 47 -21 18 -27 -70
-4 -51 -9 -102 -11 -113 -2 -11 -5 -32 -5 -47 -1 -44 -18 -32 -25 18 -3 25
-15 82 -25 127 -11 45 -22 109 -25 142 -4 33 -11 87 -16 120 -5 33 -14 110
-20 170 -14 145 -18 151 -19 30z m178 -741 c0 -39 -2 -74 -6 -77 -9 -10 -42
91 -43 130 0 17 5 35 10 38 6 3 10 18 10 33 0 15 4 38 8 52 8 29 19 -59 21
-176z"/>
<path d="M1062 1850 c0 -19 2 -27 5 -17 2 9 2 25 0 35 -3 9 -5 1 -5 -18z"/>
<path d="M1470 1798 c0 -22 77 -124 121 -161 53 -44 54 -31 1 16 -47 41 -69
68 -104 131 -12 20 -18 25 -18 14z"/>
<path d="M3604 1749 c-69 -71 -162 -144 -171 -136 -6 7 -32 -22 -33 -35 -1
-21 114 57 198 133 17 16 32 28 32 26 0 -2 -13 -40 -30 -85 -16 -46 -30 -88
-30 -95 1 -21 46 80 64 141 9 31 21 69 25 85 5 15 8 27 6 27 -1 0 -29 -27 -61
-61z"/>
<path d="M1471 1628 c-2 -52 21 -234 45 -343 30 -142 76 -255 121 -303 7 -7
13 -18 13 -23 0 -5 9 -9 20 -9 27 0 25 14 -2 29 -13 7 -35 38 -51 69 -33 69
-87 224 -87 252 0 20 2 19 43 -8 23 -15 96 -59 162 -97 66 -37 127 -74 135
-81 8 -7 78 -44 155 -82 97 -49 155 -85 189 -117 41 -40 46 -49 33 -57 -9 -4
-14 -15 -11 -23 4 -8 2 -15 -2 -15 -12 0 -19 -75 -19 -200 1 -106 13 -169 39
-205 13 -18 13 -12 1 45 -8 36 -15 120 -15 187 -2 118 -1 125 29 187 40 81 48
88 91 76 18 -5 62 -12 98 -15 52 -4 72 -1 97 13 17 10 44 22 60 26 59 15 117
58 135 100 26 61 33 86 21 86 -5 0 -18 -24 -29 -52 -16 -45 -26 -57 -63 -75
-57 -30 -89 -30 -89 0 -1 20 -2 20 -11 4 -6 -9 -7 -26 -4 -37 5 -15 0 -22 -18
-29 -14 -6 -28 -14 -31 -20 -4 -6 -17 -7 -34 -1 -15 4 -56 11 -92 14 -75 7
-137 32 -385 157 -202 101 -304 159 -365 207 -66 53 -140 132 -140 152 0 9 -3
20 -7 24 -5 4 -13 49 -19 99 -6 51 -12 80 -13 65z"/>
<path d="M573 1605 c0 -22 2 -30 4 -17 2 12 2 30 0 40 -3 9 -5 -1 -4 -23z"/>
<path d="M3636 1554 c-4 -20 -5 -38 -3 -40 3 -3 8 11 11 32 4 20 5 38 3 40 -3
3 -8 -11 -11 -32z"/>
<path d="M323 1410 c0 -41 2 -58 4 -37 2 20 2 54 0 75 -2 20 -4 3 -4 -38z"/>
<path d="M890 1471 c-8 -6 -17 -8 -21 -5 -4 2 -12 -3 -19 -11 -11 -13 -8 -13
19 -4 17 6 34 15 37 20 7 11 3 11 -16 0z"/>
<path d="M3577 1370 c-7 -94 -15 -165 -33 -269 -4 -26 -8 -31 -15 -20 -5 8 -9
28 -9 44 l0 30 -13 -25 c-15 -28 -57 -32 -86 -7 -9 8 -29 17 -46 21 -16 4 -46
18 -66 32 -35 24 -36 26 -36 95 -1 39 -4 73 -6 76 -3 3 -6 -20 -6 -51 0 -31
-2 -64 -6 -75 -4 -15 4 -26 37 -49 24 -16 60 -35 81 -43 21 -9 39 -20 40 -25
1 -11 -42 -21 -113 -24 -32 -2 -45 -5 -30 -8 14 -2 67 1 118 8 103 14 116 9
150 -55 l16 -30 13 89 c18 126 31 323 23 360 -4 21 -8 -2 -13 -74z"/>
<path d="M1125 1430 c-3 -5 1 -10 10 -10 9 0 13 5 10 10 -3 6 -8 10 -10 10 -2
0 -7 -4 -10 -10z"/>
<path d="M1375 1340 c21 -167 57 -330 74 -330 5 0 11 -9 14 -20 3 -12 14 -20
26 -20 19 0 19 1 -4 25 -20 20 -25 34 -25 77 l0 53 16 -32 c21 -42 106 -129
133 -136 25 -6 28 11 4 20 -17 6 -67 54 -107 103 -33 41 -87 160 -103 229 -21
86 -37 104 -28 31z"/>
<path d="M535 1303 c-4 -37 -13 -113 -20 -168 -8 -55 -17 -127 -20 -160 -3
-33 -8 -71 -11 -85 -4 -16 -2 -22 4 -15 6 6 12 30 15 55 3 25 9 74 15 110 13
81 34 322 28 327 -2 3 -7 -26 -11 -64z"/>
<path d="M2792 1311 c-70 -37 -90 -58 -27 -29 53 25 106 58 90 57 -6 0 -34
-13 -63 -28z"/>
<path d="M2998 1303 c7 -3 16 -2 19 1 4 3 -2 6 -13 5 -11 0 -14 -3 -6 -6z"/>
<path d="M3045 1280 c4 -6 11 -8 16 -5 14 9 11 15 -7 15 -8 0 -12 -5 -9 -10z"/>
<path d="M311 959 c1 -167 5 -367 9 -444 4 -78 5 56 2 300 -2 242 -6 442 -8
444 -2 2 -3 -133 -3 -300z"/>
<path d="M2973 1253 c9 -2 23 -2 30 0 6 3 -1 5 -18 5 -16 0 -22 -2 -12 -5z"/>
<path d="M3078 1193 c12 -2 32 -2 45 0 12 2 2 4 -23 4 -25 0 -35 -2 -22 -4z"/>
<path d="M2792 1068 c-7 -45 -10 -83 -8 -85 7 -7 36 103 36 136 0 60 -17 30
-28 -51z"/>
<path d="M2945 1089 c-4 -6 -5 -12 -2 -15 2 -3 7 2 10 11 7 17 1 20 -8 4z"/>
<path d="M1300 1086 c0 -4 14 -21 32 -38 l32 -30 -40 7 c-21 4 -47 9 -56 12
-10 2 -18 0 -18 -6 0 -11 60 -30 130 -40 53 -7 55 -13 45 -117 -6 -71 -7 -73
-28 -61 -39 22 -59 41 -95 96 -20 30 -38 49 -40 42 -2 -6 3 -22 12 -34 9 -12
26 -36 37 -54 11 -18 29 -35 40 -38 10 -4 19 -10 19 -15 0 -4 35 -30 78 -56
42 -26 79 -51 82 -54 7 -9 198 -133 230 -150 14 -7 27 -17 30 -21 3 -4 75 -43
161 -87 85 -43 166 -86 180 -95 13 -8 40 -17 60 -20 52 -6 76 -23 83 -57 6
-33 63 -120 78 -120 4 0 8 -7 8 -15 0 -9 -9 -15 -21 -15 -11 0 -27 -7 -35 -15
-14 -13 -14 -15 0 -15 8 0 37 5 64 11 36 9 58 9 81 1 20 -7 33 -7 37 -1 9 15
0 20 -45 26 -32 4 -50 15 -81 49 -40 44 -40 44 -40 127 0 51 5 88 12 95 9 9 9
12 0 12 -18 0 -31 -32 -33 -84 -3 -42 -4 -46 -16 -30 -7 10 -13 21 -13 24 0
12 -51 30 -86 30 -32 0 -71 14 -84 29 -3 3 -62 35 -132 71 -71 35 -128 68
-128 72 0 5 -6 8 -14 8 -13 0 -205 125 -253 165 -7 5 -41 28 -77 50 -65 40
-65 40 -58 75 4 19 7 66 7 104 l0 69 -45 24 c-25 13 -57 36 -72 50 -16 15 -28
23 -28 19z"/>
<path d="M1185 1020 c-9 -17 -18 -64 -20 -103 l-4 -72 10 55 c5 30 17 74 26
98 19 51 11 67 -12 22z"/>
<path d="M3147 1020 c-3 -11 -18 -25 -34 -31 -23 -10 -25 -13 -9 -17 15 -3 17
-10 12 -44 -4 -22 -13 -50 -21 -61 -14 -20 -15 -18 -16 33 -1 65 -17 41 -18
-26 -1 -48 -7 -57 -32 -43 -24 12 -25 -1 -1 -22 9 -9 33 -34 53 -55 20 -21 47
-45 62 -53 22 -12 28 -11 51 5 36 27 64 114 36 114 -5 0 -10 -10 -10 -21 0
-27 -38 -89 -54 -89 -7 0 -22 10 -34 23 -28 30 -29 102 -3 172 19 51 37 135
28 135 -3 0 -7 -9 -10 -20z m-57 -211 c0 -10 -4 -19 -10 -19 -5 0 -10 12 -10
26 0 14 4 23 10 19 6 -3 10 -15 10 -26z"/>
<path d="M2901 985 c0 -22 2 -63 5 -92 6 -44 9 -50 20 -38 14 14 8 66 -15 140
-9 30 -9 30 -10 -10z"/>
<path d="M2790 907 c0 -2 11 -30 25 -63 21 -51 24 -55 25 -29 0 17 -9 45 -20
63 -17 27 -30 40 -30 29z"/>
<path d="M3292 859 c-54 -11 -50 -20 7 -17 31 2 56 8 58 15 5 13 -12 13 -65 2z"/>
<path d="M481 845 c-1 -11 -5 -58 -11 -105 -5 -47 -12 -121 -16 -165 -3 -44
-9 -84 -12 -90 -2 -5 1 -5 8 2 13 12 45 331 36 363 -2 10 -4 9 -5 -5z"/>
<path d="M2931 809 c-24 -10 -61 -22 -83 -25 -22 -4 -34 -10 -28 -14 18 -11
92 6 133 30 60 35 48 40 -22 9z"/>
<path d="M3640 799 c0 -8 10 -25 21 -39 l20 -25 -17 35 c-20 43 -24 47 -24 29z"/>
<path d="M1151 789 c-1 -8 -14 -28 -31 -44 -16 -15 -36 -42 -43 -59 -20 -42
-31 -96 -19 -96 12 0 32 46 32 76 0 15 16 45 36 69 20 25 34 50 31 57 -4 9 -6
8 -6 -3z"/>
<path d="M3362 790 c0 -8 4 -26 8 -40 6 -20 8 -21 8 -5 0 11 -3 29 -8 40 -5
12 -8 14 -8 5z"/>
<path d="M2756 712 c-4 -18 -5 -36 -2 -39 11 -12 17 5 14 39 l-3 33 -9 -33z"/>
<path d="M2290 719 c68 -32 92 -40 103 -36 15 5 -57 37 -98 43 -30 4 -30 4 -5
-7z"/>
<path d="M3680 722 c0 -18 23 -62 32 -62 5 0 1 15 -8 33 -20 39 -24 44 -24 29z"/>
<path d="M3381 694 c0 -11 3 -14 6 -6 3 7 2 16 -1 19 -3 4 -6 -2 -5 -13z"/>
<path d="M3210 670 c8 -5 22 -10 30 -10 13 0 13 1 0 10 -8 5 -22 10 -30 10
-13 0 -13 -1 0 -10z"/>
<path d="M4057 640 c3 -11 7 -20 9 -20 2 0 4 9 4 20 0 11 -4 20 -9 20 -5 0 -7
-9 -4 -20z"/>
<path d="M3269 617 c-6 -14 -24 -31 -40 -37 -16 -7 -26 -16 -23 -21 8 -14 58
17 74 45 7 14 11 29 7 32 -3 4 -12 -5 -18 -19z"/>
<path d="M3731 625 c0 -5 6 -21 14 -35 8 -14 14 -20 14 -15 0 6 -6 21 -14 35
-8 14 -14 21 -14 15z"/>
<path d="M2972 603 c-16 -6 -6 -23 15 -23 8 0 26 -9 40 -20 27 -21 77 -25 123
-10 20 6 13 8 -28 9 -51 1 -112 25 -112 43 0 9 -18 9 -38 1z"/>
<path d="M2361 528 c-1 -36 -4 -74 -8 -84 -4 -11 -3 -15 5 -10 16 9 24 85 13
126 -8 31 -9 28 -10 -32z"/>
<path d="M2801 568 c16 -30 163 -178 177 -178 6 0 -32 45 -85 100 -54 55 -98
100 -100 100 -2 0 2 -10 8 -22z"/>
<path d="M994 523 c-9 -15 -26 -36 -36 -47 -10 -11 -18 -29 -18 -40 0 -17 3
-16 16 9 8 16 21 37 28 45 16 18 38 60 33 60 -3 0 -13 -12 -23 -27z"/>
<path d="M3416 441 c4 -78 19 -147 33 -155 4 -3 2 23 -5 57 -7 34 -17 87 -23
117 l-10 55 5 -74z"/>
<path d="M443 415 c0 -22 2 -30 4 -17 2 12 2 30 0 40 -3 9 -5 -1 -4 -23z"/>
<path d="M903 403 c-12 -2 -32 -15 -45 -28 -13 -14 -32 -25 -43 -26 -15 -1
-16 -2 -3 -6 9 -2 33 3 53 11 21 9 49 16 62 16 23 0 24 -3 19 -42 -5 -42 -5
-42 6 -10 6 17 15 32 19 32 5 0 9 5 9 10 0 6 -5 10 -11 10 -6 0 -18 8 -27 17
-16 16 -16 16 0 10 10 -3 20 -2 23 3 6 10 -20 11 -62 3z"/>
<path d="M2560 406 c0 -2 7 -7 16 -10 8 -3 12 -2 9 4 -6 10 -25 14 -25 6z"/>
<path d="M2350 361 c0 -6 6 -11 13 -11 27 0 65 -60 120 -190 8 -19 22 -44 31
-55 9 -12 6 3 -9 40 -14 33 -25 66 -25 74 0 23 -63 129 -79 134 -9 3 -24 8
-33 12 -11 4 -18 3 -18 -4z"/>
<path d="M2634 345 c6 -14 16 -23 21 -21 15 4 45 -34 45 -57 0 -24 10 -17 14
10 4 22 22 20 91 -12 28 -12 64 -25 80 -29 29 -5 29 -5 5 6 -14 6 -38 18 -55
25 -16 8 -56 23 -88 33 -32 10 -73 30 -91 44 l-34 25 12 -24z"/>
<path d="M3030 344 c9 -10 22 -32 30 -49 8 -16 18 -32 21 -35 19 -16 39 -77
21 -66 -4 2 -36 7 -71 11 l-63 6 22 -33 c13 -18 30 -39 38 -45 9 -7 18 -32 21
-55 4 -24 12 -43 21 -46 12 -4 13 -2 3 9 -7 7 -13 20 -13 29 0 13 1 13 10 0 5
-8 10 -10 10 -5 0 6 -6 17 -12 24 -11 10 -9 14 5 22 17 10 17 13 -8 45 -28 36
-24 39 32 28 20 -4 38 -20 59 -50 16 -24 33 -44 37 -44 16 0 -141 252 -165
266 -8 5 -7 0 2 -12z m15 -184 c10 -11 15 -23 11 -27 -6 -6 -46 30 -46 42 0
11 18 4 35 -15z"/>
<path d="M1027 328 c12 -13 23 -32 26 -43 4 -16 5 -15 6 5 0 14 -8 33 -19 43
-29 24 -37 21 -13 -5z"/>
<path d="M760 331 c-8 -5 -49 -16 -90 -26 -41 -9 -94 -25 -116 -35 -23 -10
-57 -22 -76 -25 -35 -7 -35 -6 -31 27 3 24 2 29 -6 18 -14 -23 -17 -290 -3
-290 4 0 6 41 4 91 -4 110 2 139 27 139 11 0 57 13 103 29 150 53 201 59 191
20 -7 -25 -23 -25 -18 1 2 11 0 20 -6 20 -14 0 -11 -38 5 -47 18 -10 33 -63
18 -63 -6 0 -15 12 -20 28 -9 23 -11 24 -11 5 -1 -30 9 -54 20 -47 6 3 7 -6 3
-22 -10 -38 -11 -141 -1 -150 14 -14 18 5 19 92 1 49 6 92 12 96 6 4 6 15 -1
31 -7 14 -10 46 -8 71 2 25 3 46 2 46 -1 0 -9 -4 -17 -9z"/>
<path d="M4381 295 c6 -22 15 -45 21 -52 9 -11 55 -175 62 -218 2 -13 12 -21
29 -23 15 -2 27 -2 27 0 0 5 -59 157 -75 193 -7 17 -18 44 -24 60 -7 17 -20
41 -31 55 l-19 25 10 -40z"/>
<path d="M2650 307 c0 -3 5 -18 12 -32 11 -25 28 -34 28 -15 0 6 -5 10 -11 10
-5 0 -8 4 -5 9 3 5 -1 14 -9 21 -8 7 -15 10 -15 7z"/>
<path d="M2183 254 c-13 -14 -23 -32 -23 -41 0 -10 10 -4 30 18 44 50 37 71
-7 23z"/>
<path d="M1070 265 c0 -2 15 -12 33 -20 l32 -16 -24 21 c-22 19 -41 26 -41 15z"/>
<path d="M2676 221 c21 -21 29 -19 21 4 -4 8 -14 15 -23 15 -16 0 -16 -2 2
-19z"/>
<path d="M1148 209 c6 -7 12 -26 12 -43 0 -23 3 -27 12 -18 15 15 0 63 -22 70
-12 4 -13 2 -2 -9z"/>
<path d="M3522 194 c10 -10 20 -15 24 -12 3 4 -5 12 -18 18 -22 12 -22 12 -6
-6z"/>
<path d="M1036 188 c3 -5 10 -6 15 -3 13 9 11 12 -6 12 -8 0 -12 -4 -9 -9z"/>
<path d="M2142 128 c-27 -129 -27 -128 4 -128 21 0 25 3 15 9 -11 7 -13 26 -7
90 3 45 5 81 3 81 -2 0 -9 -24 -15 -52z"/>
<path d="M1080 160 c0 -5 5 -10 11 -10 5 0 7 5 4 10 -3 6 -8 10 -11 10 -2 0
-4 -4 -4 -10z"/>
<path d="M337 147 c-4 -11 -4 -23 -1 -28 3 -5 7 -27 9 -49 3 -23 9 -48 15 -58
11 -17 6 39 -9 118 -5 28 -8 31 -14 17z"/>
<path d="M1105 130 c3 -5 14 -10 23 -10 15 0 15 2 2 10 -20 13 -33 13 -25 0z"/>
<path d="M1160 91 c0 -20 10 -41 31 -62 17 -17 33 -29 36 -26 3 3 -9 21 -26
39 -19 19 -30 40 -27 50 2 10 0 21 -5 24 -5 3 -9 -8 -9 -25z"/>
<path d="M2242 44 c-33 -28 -41 -44 -21 -44 12 0 31 20 50 53 13 23 8 22 -29
-9z"/>
<path d="M3092 35 c0 -25 5 -35 15 -35 10 0 13 6 9 16 -3 9 -6 24 -6 35 0 10
-4 19 -9 19 -5 0 -9 -16 -9 -35z"/>
<path d="M3250 31 c0 -11 29 -35 35 -29 2 2 -4 12 -15 21 -11 9 -20 13 -20 8z"/>
</g>
</svg>
